<svg width="52" height="40" viewBox="0 0 52 40" fill="none" xmlns="http://www.w3.org/2000/svg">
<rect x="12" width="40" height="40" rx="7" fill="#444444" fill-opacity="0.25"/>
<rect width="40" height="40" rx="7" fill="#323232"/>
<path d="M20 27.5C20.9849 27.5 21.9602 27.306 22.8701 26.9291C23.7801 26.5522 24.6069 25.9997 25.3033 25.3033C25.9997 24.6069 26.5522 23.7801 26.9291 22.8701C27.306 21.9602 27.5 20.9849 27.5 20C27.5 19.0151 27.306 18.0398 26.9291 17.1299C26.5522 16.2199 25.9997 15.3931 25.3033 14.6967C24.6069 14.0003 23.7801 13.4478 22.8701 13.0709C21.9602 12.694 20.9849 12.5 20 12.5C18.0109 12.5 16.1032 13.2902 14.6967 14.6967C13.2902 16.1032 12.5 18.0109 12.5 20C12.5 21.9891 13.2902 23.8968 14.6967 25.3033C16.1032 26.7098 18.0109 27.5 20 27.5Z" stroke="#B7FF00" stroke-linecap="round" stroke-linejoin="round"/>
<path d="M19.375 19.6875H20V23.75H20.625" stroke="#B7FF00" stroke-linecap="round" stroke-linejoin="round"/>
<path d="M19.8438 17.8125C20.1753 17.8125 20.4932 17.6808 20.7276 17.4464C20.9621 17.212 21.0938 16.894 21.0938 16.5625C21.0938 16.231 20.9621 15.913 20.7276 15.6786C20.4932 15.4442 20.1753 15.3125 19.8438 15.3125C19.5122 15.3125 19.1943 15.4442 18.9599 15.6786C18.7254 15.913 18.5938 16.231 18.5938 16.5625C18.5938 16.894 18.7254 17.212 18.9599 17.4464C19.1943 17.6808 19.5122 17.8125 19.8438 17.8125Z" fill="#B7FF00"/>
</svg>
